<?xml version="1.0" standalone="no"?>
<!DOCTYPE svg PUBLIC "-//W3C//DTD SVG 20010904//EN"
 "http://www.w3.org/TR/2001/REC-SVG-20010904/DTD/svg10.dtd">
<svg version="1.0" xmlns="http://www.w3.org/2000/svg"
 width="868.000000pt" height="384.000000pt" viewBox="0 0 868.000000 384.000000"
 preserveAspectRatio="xMidYMid meet">

<g transform="translate(0.000000,384.000000) scale(0.100000,-0.100000)"
fill="#000000" stroke="none">
<path d="M6197 3073 c-4 -3 -7 -35 -7 -70 0 -76 0 -76 -135 -91 -202 -23 -377
-110 -523 -260 -60 -61 -82 -94 -127 -186 -35 -72 -58 -136 -66 -181 -7 -38
-16 -74 -21 -79 -4 -6 -8 -31 -8 -58 0 -37 4 -50 20 -58 23 -12 28 -10 90 41
155 129 312 130 449 3 32 -30 63 -54 68 -54 4 0 27 20 51 45 43 45 126 95 160
95 17 0 19 -12 25 -137 4 -75 7 -326 7 -557 0 -365 2 -425 16 -444 8 -12 23
-22 32 -22 10 0 96 39 192 86 96 47 263 129 370 182 244 119 252 125 248 166
-3 30 -12 35 -203 133 -110 57 -207 106 -215 109 -8 4 -93 44 -187 91 l-173
84 0 72 c0 133 12 237 27 237 30 0 105 -45 153 -91 28 -27 54 -49 58 -49 4 0
32 24 62 52 96 89 197 116 307 84 80 -24 95 -32 157 -88 48 -42 58 -48 76 -38
25 13 26 57 4 155 -23 104 -60 204 -102 276 -66 113 -205 239 -339 307 -93 48
-263 92 -355 92 -51 0 -67 19 -61 73 7 61 -22 108 -50 80z m269 -236 c105 -28
141 -44 240 -104 72 -43 216 -183 228 -221 4 -11 19 -23 34 -27 27 -7 27 -7 5
-18 -28 -12 -29 -23 -4 -37 20 -10 71 -152 71 -197 0 -32 -23 -29 -53 6 -20
24 -35 30 -83 36 -96 11 -106 13 -124 30 -15 14 -19 13 -43 -5 -14 -11 -35
-20 -46 -20 -30 0 -131 -53 -160 -84 -31 -33 -36 -32 -71 2 -15 15 -33 32 -39
37 -7 6 -18 18 -25 29 -10 15 -27 19 -82 20 -38 1 -73 4 -79 6 -5 2 -44 -2
-85 -9 -74 -13 -156 -54 -189 -94 -19 -23 -28 -21 -67 13 -47 41 -111 73 -119
59 -5 -7 -11 -5 -18 4 -16 19 -117 38 -139 26 -9 -5 -28 -9 -42 -9 -31 0 -128
-43 -146 -65 -7 -8 -19 -15 -27 -15 -12 0 -14 9 -10 43 8 70 22 112 37 113 33
3 34 5 16 19 -17 13 -16 17 20 86 27 51 66 101 129 164 76 76 106 98 190 141
90 46 207 83 310 98 79 12 282 -3 371 -27z m103 -1254 c143 -73 151 -79 151
-104 0 -15 -23 -30 -87 -61 -49 -24 -90 -45 -93 -48 -19 -20 -122 -61 -139
-55 -20 6 -21 13 -21 170 0 209 -15 201 189 98z"/>
<path d="M6193 2834 c-9 -23 11 -38 26 -20 13 16 7 36 -10 36 -5 0 -12 -7 -16
-16z"/>
<path d="M5984 2799 c-3 -6 -2 -15 2 -19 12 -12 38 5 30 19 -9 14 -23 14 -32
0z"/>
<path d="M6330 2800 c0 -5 7 -10 15 -10 8 0 15 5 15 10 0 6 -7 10 -15 10 -8 0
-15 -4 -15 -10z"/>
<path d="M6475 2800 c-4 -6 -3 -14 0 -20 9 -15 35 -12 35 4 0 17 -27 29 -35
16z"/>
<path d="M6100 2790 c0 -5 5 -10 11 -10 5 0 7 5 4 10 -3 6 -8 10 -11 10 -2 0
-4 -4 -4 -10z"/>
<path d="M6240 2770 c0 -22 7 -25 29 -11 16 10 6 31 -15 31 -8 0 -14 -9 -14
-20z"/>
<path d="M6392 2758 c2 -12 11 -24 21 -26 14 -3 18 1 15 20 -2 12 -11 24 -21
26 -14 3 -18 -1 -15 -20z"/>
<path d="M6557 2736 c-3 -8 0 -22 8 -33 13 -17 14 -17 20 0 8 20 0 47 -14 47
-5 0 -11 -6 -14 -14z"/>
<path d="M6720 2685 c0 -9 5 -15 11 -13 6 2 11 8 11 13 0 5 -5 11 -11 13 -6 2
-11 -4 -11 -13z"/>
<path d="M6232 2678 c-15 -15 -16 -38 -2 -38 12 0 23 25 18 40 -2 7 -7 7 -16
-2z"/>
<path d="M5824 2659 c-10 -17 13 -36 27 -22 12 12 4 33 -11 33 -5 0 -12 -5
-16 -11z"/>
<path d="M6137 2639 c-3 -13 -1 -19 6 -16 15 5 22 37 9 37 -5 0 -12 -9 -15
-21z"/>
<path d="M6286 2625 c-8 -39 -2 -55 20 -55 8 0 14 -10 14 -25 0 -16 6 -25 15
-25 9 0 15 9 15 25 0 15 -6 25 -14 25 -17 0 -27 37 -19 68 4 15 1 22 -10 22
-9 0 -17 -13 -21 -35z"/>
<path d="M5980 2641 c0 -5 9 -11 20 -14 12 -3 20 -14 20 -26 0 -22 24 -29 36
-9 4 6 -5 21 -22 35 -30 23 -54 30 -54 14z"/>
<path d="M5870 2600 c0 -5 5 -10 10 -10 6 0 10 5 10 10 0 6 -4 10 -10 10 -5 0
-10 -4 -10 -10z"/>
<path d="M5671 2569 c-13 -17 -17 -29 -10 -25 8 3 22 9 32 12 17 6 25 44 9 44
-5 0 -19 -14 -31 -31z"/>
<path d="M6170 2560 c-8 -5 -11 -12 -7 -16 4 -4 13 -2 19 4 15 15 7 24 -12 12z"/>
<path d="M6537 2564 c-11 -11 -8 -44 3 -44 15 0 24 30 13 41 -5 5 -12 6 -16 3z"/>
<path d="M5870 2534 c0 -9 7 -14 17 -12 25 5 28 28 4 28 -12 0 -21 -6 -21 -16z"/>
<path d="M5550 2516 c0 -9 7 -16 16 -16 9 0 14 5 12 12 -6 18 -28 21 -28 4z"/>
<path d="M5693 2515 c-3 -9 -3 -18 0 -22 10 -10 37 6 37 22 0 20 -29 20 -37 0z"/>
<path d="M6746 2523 c-11 -11 -6 -23 9 -23 8 0 15 4 15 9 0 13 -16 22 -24 14z"/>
<path d="M6880 2495 c0 -16 9 -19 34 -9 20 8 11 24 -15 24 -10 0 -19 -7 -19
-15z"/>
<path d="M5760 2450 c0 -5 5 -10 10 -10 6 0 10 5 10 10 0 6 -4 10 -10 10 -5 0
-10 -4 -10 -10z"/>
<path d="M6604 2429 c-8 -14 11 -33 25 -25 16 10 13 36 -3 36 -8 0 -18 -5 -22
-11z"/>
<path d="M6060 2415 c0 -8 5 -15 10 -15 6 0 10 7 10 15 0 8 -4 15 -10 15 -5 0
-10 -7 -10 -15z"/>
<path d="M5970 2410 c0 -5 5 -10 10 -10 6 0 10 5 10 10 0 6 -4 10 -10 10 -5 0
-10 -4 -10 -10z"/>
<path d="M5725 2400 c3 -5 11 -10 16 -10 6 0 7 5 4 10 -3 6 -11 10 -16 10 -6
0 -7 -4 -4 -10z"/>
<path d="M5870 2390 c0 -5 5 -10 10 -10 6 0 10 5 10 10 0 6 -4 10 -10 10 -5 0
-10 -4 -10 -10z"/>
<path d="M6015 2379 c-4 -6 -4 -13 -1 -16 8 -8 36 5 36 17 0 13 -27 13 -35 -1z"/>
<path d="M6357 2364 c-8 -8 1 -24 14 -24 5 0 9 7 9 15 0 15 -12 20 -23 9z"/>
<path d="M5595 2350 c-3 -5 -4 -14 0 -20 8 -13 35 -1 35 16 0 16 -26 19 -35 4z"/>
<path d="M6506 2353 c-12 -12 -6 -43 9 -43 8 0 15 9 15 19 0 21 -13 34 -24 24z"/>
<path d="M5715 2340 c3 -5 8 -10 11 -10 2 0 4 5 4 10 0 6 -5 10 -11 10 -5 0
-7 -4 -4 -10z"/>
<path d="M6697 2336 c-6 -16 2 -28 14 -20 12 7 11 34 0 34 -5 0 -11 -6 -14
-14z"/>
<path d="M5902 2234 c4 -21 22 -23 26 -1 2 10 -3 17 -13 17 -10 0 -15 -6 -13
-16z"/>
<path d="M2601 1886 c-19 -75 -18 -76 49 -76 57 0 60 1 66 28 3 15 10 42 14
60 l8 32 -63 0 -63 0 -11 -44z"/>
<path d="M4820 1915 c0 -5 -123 -581 -135 -633 -5 -22 -4 -23 57 -20 l63 3 67
310 c37 171 67 318 68 328 0 14 -9 17 -60 17 -33 0 -60 -2 -60 -5z"/>
<path d="M1886 1750 c-16 -5 -49 -28 -74 -52 l-45 -43 7 30 c4 17 9 38 12 48
5 15 -2 17 -54 17 -54 0 -60 -2 -65 -22 -13 -50 -97 -449 -97 -458 0 -6 27
-10 60 -10 54 0 60 2 65 23 3 12 16 72 29 132 30 135 37 154 70 184 19 18 41
26 81 29 46 4 56 8 60 26 24 107 24 106 1 105 -11 0 -34 -5 -50 -9z"/>
<path d="M2132 1742 c-29 -11 -64 -30 -78 -43 -23 -21 -64 -88 -64 -104 0 -3
25 -5 56 -5 50 0 58 3 88 35 28 29 40 35 75 35 54 0 81 -15 81 -44 0 -36 -30
-55 -109 -66 -103 -14 -121 -19 -166 -45 -71 -40 -109 -151 -75 -214 33 -63
156 -66 244 -6 45 31 46 31 46 0 0 -24 2 -25 70 -25 66 0 69 1 59 18 -9 15 -4
54 25 188 41 193 42 201 20 232 -39 56 -176 78 -272 44z m123 -291 c-8 -50
-38 -89 -81 -107 -71 -30 -132 -5 -119 49 11 41 46 65 118 81 38 7 71 17 74
20 12 12 15 -3 8 -43z"/>
<path d="M3046 1750 c-16 -5 -47 -24 -69 -41 l-40 -32 7 36 7 37 -59 0 -58 0
-48 -222 c-26 -123 -50 -233 -53 -245 -5 -22 -2 -23 55 -23 70 0 61 -15 97
155 33 158 40 177 74 209 51 49 143 45 156 -7 5 -18 -32 -217 -62 -334 -5 -22
-3 -23 59 -23 l65 0 36 173 c43 199 46 243 17 280 -32 41 -115 57 -184 37z"/>
<path d="M4418 1749 c-20 -6 -55 -27 -78 -46 l-41 -35 6 28 c4 16 8 35 11 42
2 9 -13 12 -56 12 -47 0 -60 -3 -64 -17 -3 -10 -35 -155 -71 -323 -35 -168
-67 -315 -70 -328 -5 -22 -4 -23 57 -20 l62 3 22 101 c11 55 24 113 28 129 l7
28 19 -31 c54 -88 227 -55 309 58 70 96 95 263 51 335 -36 59 -115 85 -192 64z
m30 -105 c54 -15 68 -115 28 -200 -39 -85 -102 -118 -169 -90 -44 18 -59 61
-46 131 22 119 97 183 187 159z"/>
<path d="M5148 1747 c-62 -18 -111 -57 -137 -109 l-21 -43 55 -3 c52 -3 57 -1
89 32 28 30 40 36 75 36 54 0 81 -15 81 -44 0 -37 -30 -55 -111 -66 -177 -25
-249 -84 -249 -204 0 -34 6 -48 31 -72 27 -26 37 -29 92 -29 51 0 72 6 120 33
l57 32 0 -25 c0 -24 2 -25 70 -25 67 0 70 1 60 20 -8 14 -2 59 25 182 35 165
40 203 29 233 -19 48 -173 78 -266 52z m107 -303 c-22 -73 -71 -114 -138 -114
-42 0 -59 19 -55 61 4 42 39 68 114 84 97 21 95 22 79 -31z"/>
<path d="M2570 1746 c0 -2 -22 -109 -50 -236 -27 -127 -50 -236 -50 -241 0 -6
27 -9 62 -7 l62 3 27 130 c15 72 39 181 52 243 l24 112 -63 0 c-35 0 -64 -2
-64 -4z"/>
<path d="M3365 1718 c12 -72 65 -464 65 -486 0 -37 -52 -82 -93 -82 -33 0 -36
-2 -42 -40 -10 -56 -2 -64 62 -56 75 9 105 27 146 88 32 49 295 506 332 577
l16 31 -66 0 -65 0 -94 -187 c-52 -104 -95 -181 -96 -173 0 8 -7 87 -15 175
-8 88 -15 166 -15 173 0 8 -21 12 -70 12 l-71 0 6 -32z"/>
<path d="M5525 1718 c12 -72 65 -464 65 -486 0 -37 -52 -82 -93 -82 -33 0 -36
-2 -42 -40 -10 -56 -2 -64 62 -56 75 9 105 27 146 88 32 49 295 506 332 577
l16 31 -66 0 -65 0 -94 -187 c-52 -104 -95 -181 -96 -173 0 8 -7 87 -15 175
-8 88 -15 166 -15 173 0 8 -21 12 -70 12 l-71 0 6 -32z"/>
</g>
</svg>
